<svg xmlns="http://www.w3.org/2000/svg" viewBox="0 0 1200 470" font-family="'Segoe UI', -apple-system, sans-serif">
  <defs>
    <filter id="shadow" x="-2%" y="-2%" width="104%" height="104%">
      <feDropShadow dx="0" dy="1" stdDeviation="2" flood-opacity="0.1"/>
    </filter>
    <linearGradient id="headerGrad" x1="0" y1="0" x2="1" y2="0">
      <stop offset="0%" stop-color="#003A5D"/>
      <stop offset="40%" stop-color="#003A5D"/>
      <stop offset="40%" stop-color="#0070AD"/>
      <stop offset="100%" stop-color="#0070AD"/>
    </linearGradient>
  </defs>

  <!-- HEADER -->
  <rect width="1200" height="46" fill="url(#headerGrad)"/>
  <text x="20" y="18" fill="white" font-size="10" font-weight="600" letter-spacing="0.5">CASE OVERVIEW</text>
  <text x="160" y="18" fill="white" font-size="10" opacity="0.8" font-style="italic">Healthcare</text>
  <text x="20" y="35" fill="white" font-size="14" font-weight="400">Clinical Workflow Orchestration</text>
  <text x="1180" y="32" text-anchor="end" fill="white" font-size="20" font-weight="700">Use Case Scope in the Business Process</text>

  <!-- BODY -->
  <rect y="46" width="1200" height="424" fill="#FAFBFC"/>

  <!-- SCOPE INDICATOR -->
  <rect x="8" y="66" width="1190" height="350" rx="10" fill="none" stroke="#00B0F0" stroke-width="3" stroke-dasharray="12 6" opacity="0.6"/>
  <rect x="1040" y="60" width="130" height="20" rx="4" fill="#00B0F0"/>
  <text x="1105" y="74" text-anchor="middle" fill="white" font-size="9" font-weight="600" letter-spacing="0.5">USE CASE SCOPE</text>

  <!-- Column shading (alternating) spanning PROCESSES + DATA & AI -->
  <rect x="92" y="86" width="264" height="274" fill="#e8eef3" opacity="0.5"/>
  <rect x="356" y="86" width="308" height="274" fill="#dfe8f0" opacity="0.5"/>
  <rect x="664" y="86" width="255" height="274" fill="#e8eef3" opacity="0.5"/>
  <rect x="919" y="86" width="273" height="274" fill="#dfe8f0" opacity="0.5"/>

  <!-- ============================================================ -->
  <!-- PROCESSES                                                    -->
  <!-- ============================================================ -->
  <rect x="18" y="86" width="24" height="80" rx="3" fill="#003A5D"/>
  <text x="30" y="126" text-anchor="middle" fill="white" font-size="8" font-weight="700" letter-spacing="0.5" transform="rotate(-90 30 126)">PROCESSES</text>
  <!-- Row labels to the right of sidebar -->
  <text x="46" y="118" fill="#003A5D" font-size="7" font-weight="700">L2</text>
  <text x="46" y="126" fill="#6C757D" font-size="5.5">4 sub-processes</text>
  <text x="46" y="146" fill="#003A5D" font-size="7" font-weight="700">L3</text>
  <text x="46" y="154" fill="#6C757D" font-size="5.5">13 macro tasks</text>

  <!-- Process bar -->
  <rect x="92" y="86" width="1100" height="20" rx="4" fill="#003A5D"/>
  <text x="642" y="100" text-anchor="middle" fill="white" font-size="10" font-weight="700">Clinical Workflow Management</text>

  <!-- Sub-processes -->
  <rect x="92" y="110" width="264" height="22" rx="4" fill="#003A5D" opacity="0.82"/>
  <text x="224" y="125" text-anchor="middle" fill="white" font-size="9" font-weight="600">Patient Intake &amp; Triage</text>
  <rect x="360" y="110" width="300" height="22" rx="4" fill="#003A5D" opacity="0.82"/>
  <text x="510" y="125" text-anchor="middle" fill="white" font-size="9" font-weight="600">Consultation &amp; Documentation</text>
  <rect x="668" y="110" width="247" height="22" rx="4" fill="#003A5D" opacity="0.82"/>
  <text x="791" y="125" text-anchor="middle" fill="white" font-size="9" font-weight="600">Clinical Review &amp; CDS</text>
  <rect x="923" y="110" width="269" height="22" rx="4" fill="#003A5D" opacity="0.82"/>
  <text x="1057" y="125" text-anchor="middle" fill="white" font-size="9" font-weight="600">Referral &amp; Follow-Up</text>

  <!-- Macro tasks -->
  <rect x="96" y="138" width="80" height="22" rx="3" fill="white" stroke="#bbb" stroke-width="1"/>
  <text x="136" y="153" text-anchor="middle" fill="#333" font-size="7.5" font-weight="600">Symptom Collect.</text>
  <rect x="180" y="138" width="80" height="22" rx="3" fill="white" stroke="#bbb" stroke-width="1"/>
  <text x="220" y="153" text-anchor="middle" fill="#333" font-size="7.5" font-weight="600">Urgency Assess.</text>
  <rect x="264" y="138" width="80" height="22" rx="3" fill="white" stroke="#bbb" stroke-width="1"/>
  <text x="304" y="153" text-anchor="middle" fill="#333" font-size="7.5" font-weight="600">Care Routing</text>

  <rect x="364" y="138" width="68" height="22" rx="3" fill="white" stroke="#bbb" stroke-width="1"/>
  <text x="398" y="153" text-anchor="middle" fill="#333" font-size="7.5" font-weight="600">Context Retr.</text>
  <rect x="436" y="138" width="72" height="22" rx="3" fill="white" stroke="#bbb" stroke-width="1"/>
  <text x="472" y="153" text-anchor="middle" fill="#333" font-size="7.5" font-weight="600">Consult. Capture</text>
  <rect x="512" y="138" width="68" height="22" rx="3" fill="white" stroke="#bbb" stroke-width="1"/>
  <text x="546" y="153" text-anchor="middle" fill="#333" font-size="7.5" font-weight="600">Note Struct.</text>
  <rect x="584" y="138" width="68" height="22" rx="3" fill="white" stroke="#bbb" stroke-width="1"/>
  <text x="618" y="153" text-anchor="middle" fill="#333" font-size="7.5" font-weight="600">Note Gen.</text>

  <rect x="672" y="138" width="75" height="22" rx="3" fill="white" stroke="#bbb" stroke-width="1"/>
  <text x="709" y="153" text-anchor="middle" fill="#333" font-size="7.5" font-weight="600">Drug Intxn Chk</text>
  <rect x="751" y="138" width="75" height="22" rx="3" fill="white" stroke="#bbb" stroke-width="1"/>
  <text x="788" y="153" text-anchor="middle" fill="#333" font-size="7.5" font-weight="600">Guideline Match</text>
  <rect x="830" y="138" width="79" height="22" rx="3" fill="white" stroke="#bbb" stroke-width="1"/>
  <text x="869" y="153" text-anchor="middle" fill="#333" font-size="7.5" font-weight="600">Post-Consult Rev.</text>

  <rect x="927" y="138" width="80" height="22" rx="3" fill="white" stroke="#bbb" stroke-width="1"/>
  <text x="967" y="153" text-anchor="middle" fill="#333" font-size="7.5" font-weight="600">Referral Draft</text>
  <rect x="1011" y="138" width="80" height="22" rx="3" fill="white" stroke="#bbb" stroke-width="1"/>
  <text x="1051" y="153" text-anchor="middle" fill="#333" font-size="7.5" font-weight="600">Status Track.</text>
  <rect x="1095" y="138" width="93" height="22" rx="3" fill="white" stroke="#bbb" stroke-width="1"/>
  <text x="1141" y="153" text-anchor="middle" fill="#333" font-size="7.5" font-weight="600">Patient Notif.</text>

  <!-- ============================================================ -->
  <!-- DATA & AI                                                    -->
  <!-- ============================================================ -->
  <rect x="18" y="170" width="24" height="190" rx="3" fill="#0070AD"/>
  <text x="30" y="265" text-anchor="middle" fill="white" font-size="8" font-weight="700" letter-spacing="0.5" transform="rotate(-90 30 265)">DATA &amp; AI</text>
  <!-- Row labels to the right of sidebar -->
  <text x="46" y="206" fill="#0070AD" font-size="7" font-weight="700">AGENTS</text>
  <text x="46" y="214" fill="#6C757D" font-size="5.5">5 AI agents</text>
  <text x="46" y="242" fill="#0070AD" font-size="7" font-weight="700">L4</text>
  <text x="46" y="250" fill="#6C757D" font-size="5.5">36 micro tasks</text>

  <!-- Connector lines from macro tasks down to agents -->
  <!-- Triage Agent connectors -->
  <line x1="136" y1="160" x2="136" y2="196" stroke="#0070AD" stroke-width="1" stroke-dasharray="3 2" opacity="0.5"/>
  <line x1="220" y1="160" x2="220" y2="196" stroke="#0070AD" stroke-width="1" stroke-dasharray="3 2" opacity="0.5"/>
  <!-- Scheduling Agent connectors -->
  <line x1="304" y1="160" x2="304" y2="196" stroke="#0070AD" stroke-width="1" stroke-dasharray="3 2" opacity="0.5"/>
  <!-- Documentation Agent connectors -->
  <line x1="398" y1="160" x2="398" y2="196" stroke="#0070AD" stroke-width="1" stroke-dasharray="3 2" opacity="0.5"/>
  <line x1="472" y1="160" x2="472" y2="196" stroke="#0070AD" stroke-width="1" stroke-dasharray="3 2" opacity="0.5"/>
  <line x1="546" y1="160" x2="546" y2="196" stroke="#0070AD" stroke-width="1" stroke-dasharray="3 2" opacity="0.5"/>
  <line x1="618" y1="160" x2="618" y2="196" stroke="#0070AD" stroke-width="1" stroke-dasharray="3 2" opacity="0.5"/>
  <!-- CDS Agent connectors -->
  <line x1="709" y1="160" x2="709" y2="196" stroke="#0070AD" stroke-width="1" stroke-dasharray="3 2" opacity="0.5"/>
  <line x1="788" y1="160" x2="788" y2="196" stroke="#0070AD" stroke-width="1" stroke-dasharray="3 2" opacity="0.5"/>
  <line x1="869" y1="160" x2="869" y2="196" stroke="#0070AD" stroke-width="1" stroke-dasharray="3 2" opacity="0.5"/>
  <!-- Referral Agent connectors -->
  <line x1="967" y1="160" x2="967" y2="196" stroke="#0070AD" stroke-width="1" stroke-dasharray="3 2" opacity="0.5"/>
  <line x1="1051" y1="160" x2="1051" y2="196" stroke="#0070AD" stroke-width="1" stroke-dasharray="3 2" opacity="0.5"/>
  <line x1="1141" y1="160" x2="1141" y2="196" stroke="#0070AD" stroke-width="1" stroke-dasharray="3 2" opacity="0.5"/>

  <!-- Agents (width matches their macro tasks) -->
  <rect x="92" y="196" width="166" height="26" rx="4" fill="#0070AD" filter="url(#shadow)"/>
  <text x="175" y="213" text-anchor="middle" fill="white" font-size="8.5" font-weight="600">Triage Agent</text>

  <rect x="266" y="196" width="84" height="26" rx="4" fill="#0070AD" filter="url(#shadow)"/>
  <text x="308" y="213" text-anchor="middle" fill="white" font-size="7" font-weight="600">Scheduling Agent</text>

  <rect x="360" y="196" width="296" height="26" rx="4" fill="#0070AD" filter="url(#shadow)"/>
  <text x="508" y="213" text-anchor="middle" fill="white" font-size="8.5" font-weight="600">Documentation Agent</text>

  <rect x="668" y="194" width="247" height="30" rx="4" fill="#00B0F0" filter="url(#shadow)"/>
  <text x="791" y="213" text-anchor="middle" fill="white" font-size="9.5" font-weight="700">Clinical Decision Support</text>

  <rect x="923" y="196" width="269" height="26" rx="4" fill="#0070AD" filter="url(#shadow)"/>
  <text x="1057" y="213" text-anchor="middle" fill="white" font-size="8.5" font-weight="600">Referral Agent</text>

  <!-- Dotted separator between agents and micro tasks -->
  <line x1="92" y1="228" x2="1192" y2="228" stroke="#0070AD" stroke-width="0.8" stroke-dasharray="4 3" opacity="0.3"/>

  <!-- Micro tasks (under their owning agent) -->
  <!-- Triage Agent -->
  <circle cx="104" cy="242" r="4" fill="#0070AD"/>
  <text x="112" y="245" fill="#444" font-size="7">Chatbot intake</text>
  <circle cx="104" cy="256" r="4" fill="#0070AD"/>
  <text x="112" y="259" fill="#444" font-size="7">Symptom form</text>
  <circle cx="104" cy="270" r="4" fill="#0070AD"/>
  <text x="112" y="273" fill="#444" font-size="7">History pull</text>
  <circle cx="104" cy="284" r="4" fill="#0070AD"/>
  <text x="112" y="287" fill="#444" font-size="7">Risk scoring</text>
  <circle cx="104" cy="298" r="4" fill="#0070AD"/>
  <text x="112" y="301" fill="#444" font-size="7">Priority flag</text>

  <!-- Scheduling Agent -->
  <circle cx="274" cy="242" r="4" fill="#0070AD"/>
  <text x="282" y="245" fill="#444" font-size="7">RED escalation</text>
  <circle cx="274" cy="256" r="4" fill="#0070AD"/>
  <text x="282" y="259" fill="#444" font-size="7">Slot matching</text>
  <circle cx="274" cy="270" r="4" fill="#475569"/>
  <text x="282" y="273" fill="#444" font-size="7">Booking confirm</text>
  <circle cx="274" cy="284" r="4" fill="#475569"/>
  <text x="282" y="287" fill="#444" font-size="7">Patient SMS</text>

  <!-- Documentation Agent -->
  <circle cx="372" cy="242" r="4" fill="#0070AD"/>
  <text x="380" y="245" fill="#444" font-size="7">Patient history</text>
  <circle cx="372" cy="256" r="4" fill="#0070AD"/>
  <text x="380" y="259" fill="#444" font-size="7">Prior notes</text>
  <circle cx="372" cy="270" r="4" fill="#0070AD"/>
  <text x="380" y="273" fill="#444" font-size="7">Medication list</text>
  <circle cx="372" cy="284" r="4" fill="#6f42c1"/>
  <text x="380" y="287" fill="#444" font-size="7">Transcription</text>
  <circle cx="372" cy="298" r="4" fill="#6f42c1"/>
  <text x="380" y="301" fill="#444" font-size="7">Key extraction</text>
  <circle cx="510" cy="242" r="4" fill="#6f42c1"/>
  <text x="518" y="245" fill="#444" font-size="7">SOAP format</text>
  <circle cx="510" cy="256" r="4" fill="#6f42c1"/>
  <text x="518" y="259" fill="#444" font-size="7">SNOMED coding</text>
  <circle cx="510" cy="270" r="4" fill="#6f42c1"/>
  <text x="518" y="273" fill="#444" font-size="7">Summary gen</text>
  <circle cx="510" cy="284" r="4" fill="#475569"/>
  <text x="518" y="287" fill="#444" font-size="7">EMR write-back</text>
  <circle cx="510" cy="298" r="4" fill="#475569"/>
  <text x="518" y="301" fill="#444" font-size="7">Review flag</text>

  <!-- CDS Agent -->
  <circle cx="680" cy="242" r="4" fill="#0070AD"/>
  <text x="688" y="245" fill="#444" font-size="7">BNF lookup</text>
  <circle cx="680" cy="256" r="4" fill="#0070AD"/>
  <text x="688" y="259" fill="#444" font-size="7">Interaction alert</text>
  <circle cx="680" cy="270" r="4" fill="#0070AD"/>
  <text x="688" y="273" fill="#444" font-size="7">NICE match</text>
  <circle cx="680" cy="284" r="4" fill="#0070AD"/>
  <text x="688" y="287" fill="#444" font-size="7">Evidence citation</text>
  <circle cx="810" cy="242" r="4" fill="#0070AD"/>
  <text x="818" y="245" fill="#444" font-size="7">Missed referral det.</text>
  <circle cx="810" cy="256" r="4" fill="#0070AD"/>
  <text x="818" y="259" fill="#444" font-size="7">Quality score</text>
  <circle cx="810" cy="270" r="4" fill="#0070AD"/>
  <text x="818" y="273" fill="#444" font-size="7">Confidence ind.</text>
  <circle cx="810" cy="284" r="4" fill="#0070AD"/>
  <text x="818" y="287" fill="#444" font-size="7">Accept/dismiss</text>
  <circle cx="810" cy="298" r="4" fill="#475569"/>
  <text x="818" y="301" fill="#444" font-size="7">Audit trail log</text>

  <!-- Referral Agent -->
  <circle cx="935" cy="242" r="4" fill="#6f42c1"/>
  <text x="943" y="245" fill="#444" font-size="7">Letter generation</text>
  <circle cx="935" cy="256" r="4" fill="#6f42c1"/>
  <text x="943" y="259" fill="#444" font-size="7">eRS submission</text>
  <circle cx="935" cy="270" r="4" fill="#475569"/>
  <text x="943" y="273" fill="#444" font-size="7">Status polling</text>
  <circle cx="935" cy="284" r="4" fill="#475569"/>
  <text x="943" y="287" fill="#444" font-size="7">Dashboard update</text>
  <circle cx="1070" cy="242" r="4" fill="#475569"/>
  <text x="1078" y="245" fill="#444" font-size="7">SMS to patient</text>
  <circle cx="1070" cy="256" r="4" fill="#475569"/>
  <text x="1078" y="259" fill="#444" font-size="7">Portal update</text>
  <circle cx="1070" cy="270" r="4" fill="#0070AD"/>
  <text x="1078" y="273" fill="#444" font-size="7">Appt scheduling</text>
  <circle cx="1070" cy="284" r="4" fill="#475569"/>
  <text x="1078" y="287" fill="#444" font-size="7">Follow-up remind</text>

  <!-- Data platform bar -->
  <text x="96" y="324" fill="#333" font-size="7" font-weight="600" opacity="0.5" letter-spacing="0.5">DATA PLATFORM, DATA GOVERNANCE, DATA MANAGEMENT</text>
  <rect x="92" y="332" width="1100" height="22" rx="4" fill="white" stroke="#aaa" stroke-width="1" filter="url(#shadow)"/>
  <text x="642" y="347" text-anchor="middle" fill="#333" font-size="9">
    <tspan font-weight="700">Dataverse</tspan>
    <tspan dx="8">Patients</tspan>
    <tspan dx="5">|</tspan>
    <tspan dx="5">Encounters</tspan>
    <tspan dx="5">|</tspan>
    <tspan dx="5">Guidelines</tspan>
    <tspan dx="5">|</tspan>
    <tspan dx="5">Medications</tspan>
    <tspan dx="5">|</tspan>
    <tspan dx="5">Referrals</tspan>
    <tspan dx="5">|</tspan>
    <tspan dx="5">Appointments</tspan>
    <tspan dx="5">|</tspan>
    <tspan dx="5">Audit Logs</tspan>
  </text>

  <!-- Vertical dividers between sub-process columns -->
  <line x1="356" y1="86" x2="356" y2="360" stroke="#0070AD" stroke-width="0.8" opacity="0.12"/>
  <line x1="664" y1="86" x2="664" y2="360" stroke="#0070AD" stroke-width="0.8" opacity="0.12"/>
  <line x1="919" y1="86" x2="919" y2="360" stroke="#0070AD" stroke-width="0.8" opacity="0.12"/>

  <!-- ============================================================ -->
  <!-- DIGITAL (full width)                                         -->
  <!-- ============================================================ -->
  <rect x="18" y="364" width="24" height="45" rx="3" fill="#2E8B57"/>
  <text x="30" y="388" text-anchor="middle" fill="white" font-size="8" font-weight="700" letter-spacing="0.5" transform="rotate(-90 30 388)">DIGITAL</text>

  <rect x="92" y="364" width="1100" height="45" fill="#e8f5e9"/>

  <rect x="96" y="370" width="105" height="30" rx="4" fill="white" stroke="#2E8B57" stroke-width="1.5"/>
  <text x="148" y="389" text-anchor="middle" fill="#333" font-size="8.5" font-weight="500">M365 Copilot</text>
  <rect x="207" y="370" width="105" height="30" rx="4" fill="white" stroke="#2E8B57" stroke-width="1.5"/>
  <text x="259" y="389" text-anchor="middle" fill="#333" font-size="8.5" font-weight="500">Copilot Studio</text>
  <rect x="318" y="370" width="110" height="30" rx="4" fill="white" stroke="#2E8B57" stroke-width="1.5"/>
  <text x="373" y="389" text-anchor="middle" fill="#333" font-size="8.5" font-weight="500">Power Automate</text>
  <rect x="434" y="370" width="80" height="30" rx="4" fill="white" stroke="#2E8B57" stroke-width="1.5"/>
  <text x="474" y="389" text-anchor="middle" fill="#333" font-size="8.5" font-weight="500">Power BI</text>
  <rect x="520" y="370" width="90" height="30" rx="4" fill="white" stroke="#2E8B57" stroke-width="1.5"/>
  <text x="565" y="389" text-anchor="middle" fill="#333" font-size="8.5" font-weight="500">Power Apps</text>
  <rect x="616" y="370" width="85" height="30" rx="4" fill="white" stroke="#2E8B57" stroke-width="1.5"/>
  <text x="658" y="389" text-anchor="middle" fill="#333" font-size="8.5" font-weight="500">AI Builder</text>
  <rect x="707" y="370" width="80" height="30" rx="4" fill="white" stroke="#2E8B57" stroke-width="1.5"/>
  <text x="747" y="389" text-anchor="middle" fill="#333" font-size="8.5" font-weight="500">Teams</text>
  <rect x="793" y="370" width="80" height="30" rx="4" fill="white" stroke="#2E8B57" stroke-width="1.5"/>
  <text x="833" y="389" text-anchor="middle" fill="#333" font-size="8.5" font-weight="500">Outlook</text>
  <rect x="879" y="370" width="95" height="30" rx="4" fill="white" stroke="#2E8B57" stroke-width="1.5"/>
  <text x="926" y="389" text-anchor="middle" fill="#333" font-size="8.5" font-weight="500">Azure AD</text>
  <rect x="980" y="370" width="105" height="30" rx="4" fill="white" stroke="#2E8B57" stroke-width="1.5"/>
  <text x="1032" y="389" text-anchor="middle" fill="#333" font-size="8.5" font-weight="500">SharePoint</text>
  <rect x="1091" y="370" width="97" height="30" rx="4" fill="white" stroke="#2E8B57" stroke-width="1.5"/>
  <text x="1139" y="389" text-anchor="middle" fill="#333" font-size="8.5" font-weight="500">Dynamics 365</text>

  <!-- ============================================================ -->
  <!-- LEGEND (bottom)                                              -->
  <!-- ============================================================ -->
  <rect x="18" y="424" width="1174" height="30" rx="6" fill="white" stroke="none"/>
  <circle cx="980" cy="439" r="5" fill="#0070AD"/>
  <text x="990" y="443" fill="#555" font-size="9" font-weight="600">Agentic AI</text>
  <circle cx="1070" cy="439" r="5" fill="#6f42c1"/>
  <text x="1080" y="443" fill="#555" font-size="9" font-weight="600">Gen AI</text>
  <circle cx="1130" cy="439" r="5" fill="#475569"/>
  <text x="1140" y="443" fill="#555" font-size="9" font-weight="600">Automation</text>

</svg>
